<svg version="1" xmlns="http://www.w3.org/2000/svg" width="2714.667" height="2714.667" viewBox="0 0 2036.000000 2036.000000"><path d="M1494 936.6c-85.3 3.4-152.1 22.5-210.5 60.3-28 18.1-56.6 46.5-74 73.6-27.3 42.5-39.3 91.8-35.6 146.5 5.2 75.3 34.1 127.5 92.3 166.8 17.7 12 46.6 27.6 68.8 37.2 30.4 13.2 71.1 26.5 119.5 39 96.3 24.9 158.7 44.9 187.5 60.2 26.6 14.1 45.3 31.1 52.9 48.3 10.6 23.6 10.3 53.5-.7 77.7-9.2 20.3-28.6 38.9-52.7 50.6-33 16-86 24.1-139.6 21.2-52.6-2.9-86.9-13.4-117.9-36.3-21.4-15.9-38-37.1-46.1-58.9-5.2-14.1-17.1-26.4-29.5-30.6-4.3-1.4-12.8-1.6-66.2-2-65.6-.4-72.4 0-79.1 4.2-4.9 3.1-9.3 8.8-11.6 14.9-1.5 4-1.7 6.4-1.1 15 4.7 70 44 133.6 109.6 177.2 36.2 24.1 78.1 41.8 125.3 52.9 88.8 21.1 206.8 18.8 291.5-5.4 41.6-12 83.6-31.8 112.1-52.8 41.2-30.6 69.9-68 86-112.1 14.3-39.1 18.1-88.5 10.5-136.6-9.7-61.6-42.7-108.2-101.7-143.4-12.7-7.6-42.7-21.9-60.7-28.9-34.8-13.5-73.1-25.1-123-37.4-127.8-31.3-185.5-53.4-214.1-81.8-13.8-13.7-20.6-26.4-24.4-45-2.3-11.5-1.7-33 1.4-44.5 4.2-15.9 13.9-32.5 24.6-42.3 19.3-17.7 48-29.8 82.5-34.7 15.6-2.3 54.9-3.2 68.8-1.5 30.6 3.5 54.1 10.6 75.7 22.8 30.7 17.3 49.8 40.2 55.9 67 3.4 14.8 13.8 24.7 29.7 28.2 3.9.8 24 1 73.4.8 67.6-.3 68-.3 72.1-2.5 4.9-2.6 10.7-8.9 13.1-14 3.4-7.7 1.4-29.5-4.8-50.8-7.5-25.9-23-54.8-43.1-80.5-8.3-10.6-26.4-28.7-39.3-39.2-29.2-24-68.1-45.8-106.5-59.5-32.2-11.5-68.4-18.8-109.5-22.2-13.6-1.1-48.7-2-61.5-1.5zM455.2 950.1c-6.4 1.2-13.8 5.7-17.6 10.7-6.8 8.6-6.7 7.9-6.4 67.3.3 52.3.3 53.5 2.5 58.1 3 6.6 9.5 13.2 15.6 15.9l5.2 2.4 223.3.3 223.2.2v216.2c0 142.3-.4 220.1-1 227.7-3.4 37.3-13.1 71.4-27.3 95.6-10.3 17.6-27 36.2-41.9 46.8-32.1 22.8-81.4 32-132.7 24.7-27.1-3.8-53.4-13.6-73.3-27.2-30.6-20.9-48.7-50.3-57.3-93.3-5.2-26.1-14.4-37.6-32.2-40.5-8.6-1.4-132.9-1.3-139.5.1-9 2-16.3 8.2-19.9 16.9-1.9 4.6-1.6 26.2.6 43 8.6 67.3 37.8 122.4 88.5 167.2 28.6 25.3 59.9 43.7 99.5 58.6 42.6 16 86.2 24.6 139.8 27.3 78.6 4.1 154.6-10 212.9-39.4 92.8-47 149.8-128.8 165.8-238.2 4.6-31.5 4.5-26 4.5-329 0-275-.1-287.2-1.8-292.2-2.4-6.9-9.2-14.4-15.9-17.4l-5.3-2.4-302.5-.1c-166.4-.1-304.4.2-306.8.7z"/></svg>